<?xml version="1.0" standalone="no"?>
<!DOCTYPE svg PUBLIC "-//W3C//DTD SVG 20010904//EN"
 "http://www.w3.org/TR/2001/REC-SVG-20010904/DTD/svg10.dtd">
<svg version="1.0" xmlns="http://www.w3.org/2000/svg"
 width="500.000000pt" height="500.000000pt" viewBox="0 0 500.000000 500.000000"
 preserveAspectRatio="xMidYMid meet">

<g transform="translate(0.000000,500.000000) scale(0.100000,-0.100000)"
fill="#000000" stroke="none">
<path d="M1582 2820 c-75 -11 -174 -62 -217 -113 -80 -92 -115 -194 -115 -338
0 -198 83 -349 230 -418 78 -36 212 -42 309 -12 37 11 74 27 80 35 8 9 11 58
9 152 l-3 139 -29 -85 c-64 -191 -129 -266 -211 -246 -33 8 -81 76 -100 140
-9 28 -21 95 -27 149 l-12 97 -63 0 -63 0 0 90 0 90 70 0 70 0 0 33 c1 91 54
228 102 262 73 50 186 -28 233 -163 10 -26 21 -56 25 -67 5 -12 9 33 9 115 l1
135 -100 1 c-55 1 -110 4 -122 6 -13 3 -47 2 -76 -2z"/>
<path d="M4470 2819 c-137 -20 -232 -119 -275 -284 -20 -79 -20 -249 1 -329
36 -139 114 -238 215 -271 63 -21 178 -17 230 9 68 32 117 84 153 159 43 91
56 154 56 270 -1 294 -158 479 -380 446z m92 -49 c26 -54 38 -184 38 -410 -1
-318 -22 -425 -84 -425 -70 0 -90 121 -84 494 5 258 14 325 49 367 21 26 62
13 81 -26z"/>
<path d="M141 2792 l24 -20 3 -379 c2 -208 0 -388 -3 -401 -3 -12 -14 -31 -25
-42 -20 -20 -19 -20 155 -20 l174 0 -24 25 c-25 24 -25 24 -25 240 0 143 4
215 10 215 6 0 22 -11 35 -24 25 -25 26 -33 44 -214 17 -183 67 -242 210 -250
59 -3 85 0 109 12 18 9 32 18 32 20 0 3 -13 18 -29 34 -20 19 -37 54 -51 103
-64 219 -83 250 -181 297 l-60 29 61 6 c86 7 148 41 177 96 49 92 18 201 -71
256 l-49 30 -271 3 -270 3 25 -19z m344 -4 c44 -20 66 -77 66 -173 0 -121 -29
-177 -99 -191 l-32 -6 0 191 c0 183 1 191 20 191 10 0 31 -5 45 -12z"/>
<path d="M891 2791 l24 -19 0 -402 0 -402 -24 -19 c-23 -19 -22 -19 152 -19
l176 0 -24 25 -25 24 0 391 0 391 25 24 24 25 -176 0 c-174 0 -175 0 -152 -19z"/>
<path d="M2141 2773 c-56 -212 -68 -273 -56 -273 16 0 17 3 46 157 13 67 25
121 27 119 2 -3 15 -49 28 -103 14 -54 30 -115 35 -135 l10 -38 124 0 c79 0
125 4 125 10 0 6 -16 76 -36 155 l-36 145 -129 0 -128 0 -10 -37z"/>
<path d="M2681 2792 c23 -19 24 -26 27 -156 l4 -136 124 0 124 0 0 150 c0 142
1 150 20 150 72 0 111 -64 111 -183 0 -46 -3 -90 -7 -100 -6 -15 5 -17 110
-17 l117 0 15 35 c36 88 3 189 -80 240 l-49 30 -271 3 c-270 3 -270 3 -245
-16z"/>
<path d="M3431 2791 c23 -18 24 -26 27 -155 l4 -136 84 0 84 0 0 -90 0 -90
-84 0 -85 0 -3 -176 c-3 -173 -3 -176 -28 -196 l-25 -20 220 4 c243 5 270 11
354 72 95 70 142 192 142 366 0 159 -34 263 -111 340 -84 84 -147 100 -404
100 -197 0 -198 0 -175 -19z m357 -34 c58 -54 81 -162 82 -379 0 -244 -27
-356 -100 -405 -63 -43 -60 -64 -60 398 l0 421 28 -7 c15 -3 38 -16 50 -28z"/>
<path d="M1931 2413 c-1 -28 2 -33 22 -32 15 1 17 3 5 6 -9 2 -19 16 -21 31
-4 24 -4 24 -6 -5z"/>
<path d="M2057 2433 c-13 -12 -7 -44 8 -49 17 -7 45 12 45 30 0 6 -5 3 -11 -6
-16 -28 -42 -23 -37 7 6 27 5 29 -5 18z"/>
<path d="M2190 2429 c0 -5 5 -7 10 -4 6 3 10 8 10 11 0 2 -4 4 -10 4 -5 0 -10
-5 -10 -11z"/>
<path d="M2420 2425 c0 -8 7 -15 15 -15 21 0 19 -18 -2 -23 -14 -4 -12 -5 5
-6 27 -1 29 19 2 42 -17 14 -20 14 -20 2z"/>
<path d="M2558 2410 c2 -16 6 -30 8 -30 2 0 4 14 4 30 0 17 -4 30 -8 30 -5 0
-7 -13 -4 -30z"/>
<path d="M2672 2410 c0 -19 2 -27 5 -17 2 9 2 25 0 35 -3 9 -5 1 -5 -18z"/>
<path d="M2764 2425 c-13 -32 23 -63 40 -36 4 5 -4 7 -15 4 -19 -5 -21 -3 -17
20 6 29 1 36 -8 12z"/>
<path d="M2900 2415 c-6 -15 -8 -30 -5 -33 3 -3 5 0 5 6 0 16 27 15 34 0 3 -7
3 -2 0 12 -10 40 -22 46 -34 15z"/>
<path d="M3020 2431 c0 -5 10 -16 23 -25 l22 -17 -24 5 c-17 3 -21 2 -13 -6 6
-6 19 -7 29 -4 17 7 17 9 -4 26 -12 9 -19 20 -16 24 4 3 1 6 -5 6 -7 0 -12 -4
-12 -9z"/>
<path d="M2226 2398 c5 -8 0 -9 -14 -6 -12 4 -20 2 -16 -3 9 -15 44 -10 44 6
0 8 -5 15 -11 15 -5 0 -7 -5 -3 -12z"/>
<path d="M2025 2308 c-2 -7 -14 -51 -25 -98 -44 -176 -76 -263 -102 -273 -7
-3 58 -6 145 -6 86 -1 157 3 157 7 0 5 -13 21 -29 36 -37 35 -70 111 -78 177
l-6 49 110 0 110 0 7 -46 c11 -84 7 -148 -13 -187 l-19 -37 364 0 363 0 -24
25 c-25 24 -25 27 -25 195 l0 170 -124 0 -125 0 -3 -175 c-3 -151 -5 -177 -21
-192 -13 -14 -21 -15 -35 -7 -26 17 -47 79 -113 337 l-10 37 -126 0 -125 0 5
-29 c3 -16 9 -41 13 -55 l6 -27 -108 3 -109 3 -3 53 c-3 48 -5 52 -28 52 -13
0 -27 -6 -29 -12z"/>
<path d="M3044 2216 c3 -57 13 -127 22 -155 18 -62 68 -116 121 -130 56 -16
149 -13 183 4 35 18 37 26 10 42 -27 18 -45 56 -75 164 -14 52 -35 113 -46
137 l-21 42 -100 0 -101 0 7 -104z"/>
</g>
</svg>
